<?xml version="1.0" encoding="UTF-8"?>
<svg version="1.1" viewBox="0 0 237.14 313.44" xml:space="preserve" xmlns="http://www.w3.org/2000/svg"><path d="m153.67 6.4056c-34.465 0.65624-87.831 1.8594-106.83 5.4378-56.629 12.831-46.18 88.686-14.958 113.79-33.173 45.07-31.855 107.35 10.336 144.32-23.131 29.873 14.298 54.245 37.048 21.711 29.413 8.4512 59.098 8.5718 91.75-3.4213 22.877 27.063 54.302-0.30748 34.786-25.161 33.838-35.825 35.879-110.44-12.661-150.32 33.425-57.501 2.7617-103.17-39.476-106.36zm-2.197 38.865c24.557 4.5671 26.44 35.052 9.5099 47.762-21.163-10.705-61.385-15.1-101.66 3.9564-26.769-10.909-19.5-38.659-5.9376-45.553 4.5156-2.2953 75.062-6.0443 98.083-6.1658z" fill="none" stroke="#000" stroke-width="12.802"/><g transform="translate(-198.22 -125.11)"><g><path d="m368.72 326.56c-9.9235 54.17-64.571 38.661-73.49 7.7492-1.8169-6.297 1.7778-9.2645 3.5297-9.4635 6.6541-0.75561 48.893-3.7238 65.012-5.4145 2.1561-0.22615 5.5965 3.5907 4.9483 7.1288z" stroke-width="0"/><path d="m290.26 270.55c-9.8885 7.2e-4 -17.904 8.0358-17.904 17.947-5e-5 9.9115 8.0158 17.947 17.904 17.947 9.8893 3.7e-4 17.906-8.035 17.906-17.947 6e-5 -9.9122-8.017-17.948-17.906-17.947zm4.754 5.9766c3.9574 3.3e-4 6.5207 2.9045 6.5197 6.4863-2.3e-4 3.581-2.0262 6.5914-5.9827 6.5918-3.9573 6.4e-4 -7.1658-2.9026-7.166-6.4844-9.6e-4 -3.5825 2.6709-6.5944 6.629-6.5937z"/><path d="m364.72 264.93c-9.6983-4.5e-4 -17.561 8.0288-17.561 17.934-2e-5 9.9048 7.8622 17.934 17.561 17.934 9.6983 4.5e-4 17.561-8.0288 17.561-17.934 3e-5 -9.9048-7.8622-17.934-17.561-17.934zm4.5117 6.373c3.4734-9.3e-4 6.2896 2.7295 6.2891 6.0977 4.9e-4 3.3682-2.8156 6.0986-6.2891 6.0976-3.4726-1.1e-4 -6.2876-2.7302-6.2871-6.0976-4.9e-4 -3.3674 2.8144-6.0976 6.2871-6.0977z"/><ellipse cx="275.01" cy="319.9" rx="7.6917" ry="7.6917"/><ellipse cx="385.61" cy="309.87" rx="7.6917" ry="7.6917"/></g></g></svg>
