<?xml version="1.0" encoding="UTF-8" standalone="no"?>
<!-- Created with Inkscape (http://www.inkscape.org/) -->

<svg
   width="237.14401"
   height="313.43771"
   viewBox="0 0 237.14401 313.43771"
   version="1.1"
   id="svg1"
   inkscape:version="1.4 (e7c3feb1, 2024-10-09)"
   sodipodi:docname="logo.svg"
   xml:space="preserve"
   xmlns:inkscape="http://www.inkscape.org/namespaces/inkscape"
   xmlns:sodipodi="http://sodipodi.sourceforge.net/DTD/sodipodi-0.dtd"
   xmlns="http://www.w3.org/2000/svg"
   xmlns:svg="http://www.w3.org/2000/svg"><sodipodi:namedview
     id="namedview1"
     pagecolor="#ffffff"
     bordercolor="#000000"
     borderopacity="0.25"
     inkscape:showpageshadow="2"
     inkscape:pageopacity="0.0"
     inkscape:pagecheckerboard="0"
     inkscape:deskcolor="#d1d1d1"
     inkscape:document-units="px"
     inkscape:zoom="1.5442717"
     inkscape:cx="380.43823"
     inkscape:cy="337.69964"
     inkscape:window-width="1512"
     inkscape:window-height="916"
     inkscape:window-x="0"
     inkscape:window-y="38"
     inkscape:window-maximized="0"
     inkscape:current-layer="svg1"><inkscape:page
       x="0"
       y="0"
       width="237.14401"
       height="313.43771"
       id="page2"
       margin="0"
       bleed="0" /></sodipodi:namedview><defs
     id="defs1" /><path
     id="path3"
     style="opacity:1;fill:none;stroke:#000000;stroke-width:12.802;stroke-dasharray:none;stroke-opacity:1"
     d="M 153.67295,6.4055848 C 119.20752,7.0618248 65.84178,8.2649648 46.84741,11.843375 -9.7818197,24.674745 0.66692021,100.52958 31.88985,125.6316 -1.2833097,170.70164 0.03501021,232.98326 42.22555,269.95284 c -23.13127,29.87319 14.29775,54.24479 37.04781,21.71082 29.41319,8.45123 59.09768,8.57175 91.74999,-3.42128 22.87661,27.06317 54.30195,-0.30748 34.78635,-25.1614 C 239.6477,227.25567 241.68874,152.6377 193.14916,112.7613 226.57375,55.259835 195.91083,9.5942348 153.67295,6.4055848 Z m -2.19696,38.8649802 c 24.55743,4.56712 26.43956,35.05226 9.50992,47.76233 -21.16323,-10.70529 -61.38455,-15.10005 -101.65576,3.9564 -26.76859,-10.90878 -19.5004,-38.65897 -5.9376,-45.55291 4.51558,-2.29526 75.0624,-6.04428 98.08344,-6.16582 z"
     sodipodi:nodetypes="ccccccccccccsc"
     inkscape:export-filename="monochrome.svg"
     inkscape:export-xdpi="96"
     inkscape:export-ydpi="96" /><g
     inkscape:groupmode="layer"
     id="layer2"
     inkscape:label="Body"
     style="display:inline"
     inkscape:export-filename="monochrome.svg"
     inkscape:export-xdpi="96"
     inkscape:export-ydpi="96"
     transform="translate(-198.21744,-125.11092)"><g
       inkscape:groupmode="layer"
       id="layer4"
       inkscape:label="Face"
       style="display:inline;opacity:1"><path
         id="path10"
         style="stroke:#000000;stroke-width:0"
         d="m 368.72159,326.55605 c -9.9235,54.17007 -64.57083,38.66106 -73.4898,7.74918 -1.81686,-6.29698 1.77781,-9.26453 3.52966,-9.46346 6.65407,-0.75561 48.89277,-3.7238 65.01182,-5.41452 2.15607,-0.22615 5.59647,3.59068 4.94832,7.1288 z"
         sodipodi:nodetypes="sssss" /><path
         id="path9"
         style="fill:#000000;fill-opacity:1;stroke:none;stroke-width:44.6989;stroke-dasharray:none;stroke-opacity:1"
         d="m 290.25781,270.55078 c -9.88852,7.2e-4 -17.90435,8.03579 -17.90429,17.94727 -5e-5,9.91147 8.01578,17.94654 17.90429,17.94726 9.88928,3.7e-4 17.9063,-8.03502 17.90625,-17.94726 6e-5,-9.91225 -8.01697,-17.94764 -17.90625,-17.94727 z m 4.75405,5.9766 c 3.95739,3.3e-4 6.52066,2.90451 6.51971,6.48632 -2.3e-4,3.58104 -2.02619,6.59143 -5.98274,6.59177 -3.95732,6.4e-4 -7.16579,-2.90264 -7.16602,-6.48438 -9.6e-4,-3.5825 2.6709,-6.59436 6.62905,-6.59371 z"
         sodipodi:nodetypes="cccccccccc" /><path
         id="path9-0"
         style="fill:#000000;fill-opacity:1;stroke:none;stroke-width:44.2484;stroke-dasharray:none;stroke-opacity:1"
         d="m 364.72461,264.93359 c -9.69831,-4.5e-4 -17.56058,8.02884 -17.56055,17.9336 -2e-5,9.90476 7.86224,17.93404 17.56055,17.93359 9.69831,4.5e-4 17.56057,-8.02883 17.56055,-17.93359 3e-5,-9.90476 -7.86224,-17.93405 -17.56055,-17.9336 z m 4.51172,6.37305 c 3.47342,-9.3e-4 6.28955,2.7295 6.28906,6.09766 4.9e-4,3.36816 -2.81565,6.09858 -6.28906,6.09765 -3.47265,-1.1e-4 -6.2876,-2.73023 -6.28711,-6.09765 -4.9e-4,-3.36742 2.81445,-6.09755 6.28711,-6.09766 z"
         sodipodi:nodetypes="cscscccccc" /><ellipse
         style="fill:#000000;fill-opacity:1;stroke:none;stroke-width:0;stroke-dasharray:none;stroke-opacity:1"
         id="path11"
         cx="275.00839"
         cy="319.89746"
         rx="7.6916609"
         ry="7.6916618" /><ellipse
         style="display:inline;fill:#000000;fill-opacity:1;stroke:none;stroke-width:0;stroke-dasharray:none;stroke-opacity:1"
         id="path11-0"
         cx="385.60962"
         cy="309.86514"
         rx="7.6916609"
         ry="7.6916618"
         inkscape:transform-center-x="20.427035"
         inkscape:transform-center-y="0.25218561" /></g></g></svg>
